#N canvas 4 22 1435 856 10;
#X msg 174 68 close;
#X floatatom 108 221 5 0 0 0 - - -;
#N canvas 327 64 1280 724 parse 0;
#X obj 140 122 select 13 10;
#X obj 142 186 repack 22;
#X obj 137 32 inlet;
#X obj 143 389 outlet;
#X obj 220 377 outlet;
#X text 207 47 Comport spits out ASCII strings: potPin id \, val \,
carriage return \, newline.;
#X text 230 119 strip off return and bang on each newline;
#X text 211 184 repack \, argument inconsequential since I'm banging
it.;
#X text 231 253 route by ID;
#X text 350 296 ASCII to float;
#X obj 91 297 moocow/string2any 16;
#X obj 220 297 moocow/string2any 16;
#X obj 452 382 outlet;
#X text 582 301 ASCII to float;
#X obj 452 302 moocow/string2any 16;
#X obj 685 382 outlet;
#X text 815 301 ASCII to float;
#X obj 685 302 moocow/string2any 16;
#X obj 142 219 route 48 49 50 51;
#X connect 0 0 1 0;
#X connect 0 2 1 0;
#X connect 1 0 18 0;
#X connect 2 0 0 0;
#X connect 10 0 3 0;
#X connect 11 0 4 0;
#X connect 14 0 12 0;
#X connect 17 0 15 0;
#X connect 18 0 10 0;
#X connect 18 1 11 0;
#X connect 18 2 14 0;
#X connect 18 3 17 0;
#X restore 107 190 pd parse;
#X floatatom 150 221 5 0 0 0 - - -;
#X text 78 16 Your port here;
#X msg 83 64 open \$1;
#X obj 80 40 hradio 15 1 0 8 empty empty empty 0 -8 0 10 -262144 -1
-1 2;
#X floatatom 281 166 5 0 0 0 - - -;
#X floatatom 323 166 5 0 0 0 - - -;
#X floatatom 363 166 5 0 0 0 - - -;
#X floatatom 405 166 5 0 0 0 - - -;
#N canvas 0 45 1280 724 parse_________________ 0;
#X obj 138 90 select 13 10;
#X obj 140 154 repack 22;
#X obj 137 32 inlet;
#X obj 143 389 outlet;
#X obj 220 377 outlet;
#X text 207 47 Comport spits out ASCII strings: potPin id \, val \,
carriage return \, newline.;
#X text 228 87 strip off return and bang on each newline;
#X text 209 152 repack \, argument inconsequential since I'm banging
it.;
#X text 231 253 route by ID;
#X obj 92 296 moocow/string2any 16;
#X obj 220 297 moocow/string2any 16;
#X obj 347 378 outlet;
#X obj 347 298 moocow/string2any 16;
#X obj 474 379 outlet;
#X obj 474 299 moocow/string2any 16;
#X obj 142 190 route 53;
#X obj 142 219 route 50 51 52 53 54 55 56 57;
#X text 350 296 comment;
#X text 582 301 comment;
#X text 815 301 comment;
#X obj 652 395 outlet;
#X obj 729 383 outlet;
#X obj 601 302 moocow/string2any 16;
#X obj 729 303 moocow/string2any 16;
#X obj 856 384 outlet;
#X obj 857 303 moocow/string2any 16;
#X obj 983 385 outlet;
#X obj 983 305 moocow/string2any 16;
#X text 1091 307 comment;
#X text 210 188 This is the "ID" for digital inputs...;
#X connect 0 0 1 0;
#X connect 0 2 1 0;
#X connect 1 0 15 0;
#X connect 2 0 0 0;
#X connect 9 0 3 0;
#X connect 10 0 4 0;
#X connect 12 0 11 0;
#X connect 14 0 13 0;
#X connect 15 0 16 0;
#X connect 16 0 9 0;
#X connect 16 1 10 0;
#X connect 16 2 12 0;
#X connect 16 3 14 0;
#X connect 16 4 22 0;
#X connect 16 5 23 0;
#X connect 16 6 25 0;
#X connect 16 7 27 0;
#X connect 22 0 20 0;
#X connect 23 0 21 0;
#X connect 25 0 24 0;
#X connect 27 0 26 0;
#X restore 280 135 pd parse_________________;
#X floatatom 439 166 5 0 0 0 - - -;
#X floatatom 481 166 5 0 0 0 - - -;
#X floatatom 521 166 5 0 0 0 - - -;
#X floatatom 563 166 5 0 0 0 - - -;
#X text 282 110 8 digital inputs;
#X text 122 162 2 analog inputs;
#X obj 110 92 comport 0 115200;
#X obj -55 28 tgl 15 0 empty empty empty 17 7 0 10 -4034 -4160 -1 0
1;
#X msg -55 56 \; pd dsp \$1;
#X floatatom 170 358 7 0 0 0 - - -;
#X obj 170 336 autoscale;
#X obj 243 305 nbx 3 16 -1e+37 1e+37 0 1 empty empty max 40 8 0 10
-228856 -1 -1 440 256;
#X obj 183 305 nbx 3 16 -1e+37 1e+37 0 1 empty empty min 40 8 0 10
-228856 -1 -1 48 256;
#X obj 617 680 dac~;
#X obj 616 654 *~ 0.2;
#X obj 895 470 vsl 15 64 0 0.3 0 0 empty empty amp 0 -8 1 8 -262144
-258699 -1 4300 1;
#X obj 956 241 vsl 15 64 0 2000 0 0 empty empty filter_freq 0 -8 1
8 -262144 -258699 -1 2400 1;
#X obj 615 494 bp~ 100 3;
#X obj 615 520 hip~ 60;
#N canvas 0 22 450 300 envelope 0;
#X obj 175 243 line;
#X msg 194 219 1 \$1;
#X msg 150 218 0 \$1;
#X obj 150 146 t b b;
#X obj 175 267 outlet;
#X obj 187 46 inlet attack;
#X obj 289 45 inlet decay;
#X obj 77 46 inlet trigger;
#X obj 187 87 t f f;
#X obj 150 196 f 50;
#X obj 194 197 f 50;
#X text 235 199 <-- default values 50 ms;
#X text 236 88 <-- set floats nicely;
#X obj 150 173 del 50;
#X text 151 9 envelope subpatch;
#X connect 0 0 4 0;
#X connect 1 0 0 0;
#X connect 2 0 0 0;
#X connect 3 0 13 0;
#X connect 3 1 10 0;
#X connect 5 0 8 0;
#X connect 6 0 9 1;
#X connect 7 0 3 0;
#X connect 8 0 13 1;
#X connect 8 1 10 1;
#X connect 9 0 2 0;
#X connect 10 0 1 0;
#X connect 13 0 9 0;
#X restore 746 337 pd envelope;
#X obj 716 179 bng 15 130 50 0 empty empty fire 0 -6 0 8 -262144 -258699
-1;
#X obj 783 241 vsl 15 64 0 2000 0 1 empty empty attack 0 -8 1 8 -262144
-258699 -1 1700 1;
#X obj 841 241 vsl 15 64 0 2000 0 1 empty empty decay 0 -8 1 8 -262144
-258699 -1 2000 1;
#X floatatom 783 314 5 0 0 0 - - -;
#X floatatom 841 314 5 0 0 0 - - -;
#X floatatom 956 314 5 0 0 0 - - -;
#X floatatom 895 543 5 0 0 0 - - -;
#X obj 746 382 * 3000;
#X obj 888 241 vsl 15 64 0 3000 0 0 empty empty filter_range 0 -8 1
8 -262144 -258699 -1 1500 1;
#X floatatom 888 314 5 0 0 0 - - -;
#N canvas 0 22 450 300 fatoscillator 0;
#X obj 113 206 +~;
#X obj 61 165 -~ 0.5;
#X obj 147 164 -~ 0.5;
#X obj 60 8 inlet pitch;
#X obj 146 108 +;
#X obj 60 109 -;
#X obj 149 7 inlet fatness;
#X obj 149 31 * 5;
#X obj 112 238 outlet~;
#X obj 60 137 phasor~ 55;
#X obj 146 136 phasor~ 55;
#X obj 149 53 t b b f f;
#X connect 0 0 8 0;
#X connect 1 0 0 0;
#X connect 2 0 0 1;
#X connect 3 0 5 0;
#X connect 3 0 4 0;
#X connect 4 0 10 0;
#X connect 5 0 9 0;
#X connect 6 0 7 0;
#X connect 7 0 11 0;
#X connect 9 0 1 0;
#X connect 10 0 2 0;
#X connect 11 0 5 0;
#X connect 11 1 4 0;
#X connect 11 2 5 1;
#X connect 11 3 4 1;
#X restore 570 388 pd fatoscillator;
#X obj 677 241 vsl 15 64 0 1 0 0 empty empty fatness 0 -8 1 8 -262144
-258699 -1 0 1;
#X floatatom 686 314 5 0 0 0 - - -;
#X obj 570 244 vsl 15 64 22.5 440 0 1 empty empty pitch 0 -8 1 8 -262144
-258699 -1 1300 1;
#X floatatom 578 316 5 0 0 0 - - -;
#X obj 905 337 t b f;
#X obj 854 337 t b f;
#X obj 746 411 + 20;
#X obj 1037 241 vsl 15 64 0.5 6 0 0 empty empty filter_res 0 -8 1 8
-262144 -258699 -1 3500 1;
#X floatatom 1037 314 5 0 0 0 - - -;
#N canvas 0 22 450 300 envelope 0;
#X obj 175 243 line;
#X msg 194 219 1 \$1;
#X msg 150 218 0 \$1;
#X obj 150 146 t b b;
#X obj 175 267 outlet;
#X obj 187 46 inlet attack;
#X obj 289 45 inlet decay;
#X obj 77 46 inlet trigger;
#X obj 187 87 t f f;
#X obj 150 196 f 50;
#X obj 194 197 f 50;
#X text 235 199 <-- default values 50 ms;
#X text 236 88 <-- set floats nicely;
#X obj 150 173 del 50;
#X text 151 9 envelope subpatch;
#X connect 0 0 4 0;
#X connect 1 0 0 0;
#X connect 2 0 0 0;
#X connect 3 0 13 0;
#X connect 3 1 10 0;
#X connect 5 0 8 0;
#X connect 6 0 9 1;
#X connect 7 0 3 0;
#X connect 8 0 13 1;
#X connect 8 1 10 1;
#X connect 9 0 2 0;
#X connect 10 0 1 0;
#X connect 13 0 9 0;
#X restore 716 565 pd envelope;
#X obj 753 469 vsl 15 64 0 2000 0 1 empty empty amp-attack 0 -8 1 8
-262144 -258699 -1 200 1;
#X obj 829 470 vsl 15 64 0 2000 0 1 empty empty amp-decay 0 -8 1 8
-262144 -258699 -1 600 1;
#X floatatom 753 542 5 0 0 0 - - -;
#X floatatom 829 543 5 0 0 0 - - -;
#X obj 616 617 *~;
#X obj 716 202 t b b;
#X obj 606 120 tgl 15 0 empty empty empty 17 7 0 10 -262144 -1 -1 0
1;
#X floatatom 327 353 7 0 0 0 - - -;
#X obj 327 331 autoscale;
#X obj 400 300 nbx 3 16 -1e+37 1e+37 0 1 empty empty max 40 8 0 10
-228856 -1 -1 458 256;
#X obj 340 298 nbx 3 16 -1e+37 1e+37 0 1 empty empty min 40 8 0 10
-228856 -1 -1 40 256;
#X obj 26 289 +;
#X floatatom 12 386 7 0 0 0 - - -;
#X floatatom -26 334 5 0 0 0 - - -;
#X text 706 103 amplitude envelope generator.;
#X text 768 172;
#X obj 652 147 metro;
#X obj 12 364 autoscale 0 2000;
#X connect 0 0 18 0;
#X connect 1 0 22 0;
#X connect 1 0 64 0;
#X connect 2 0 1 0;
#X connect 2 1 3 0;
#X connect 3 0 61 0;
#X connect 3 0 64 1;
#X connect 5 0 18 0;
#X connect 6 0 5 0;
#X connect 11 0 7 0;
#X connect 11 1 8 0;
#X connect 11 2 9 0;
#X connect 11 3 10 0;
#X connect 11 4 12 0;
#X connect 11 5 13 0;
#X connect 11 6 14 0;
#X connect 11 7 15 0;
#X connect 18 0 2 0;
#X connect 18 0 11 0;
#X connect 19 0 20 0;
#X connect 21 0 42 0;
#X connect 22 0 21 0;
#X connect 23 0 22 2;
#X connect 24 0 22 1;
#X connect 26 0 25 0;
#X connect 26 0 25 1;
#X connect 27 0 26 1;
#X connect 27 0 38 0;
#X connect 28 0 37 0;
#X connect 28 0 47 0;
#X connect 29 0 30 0;
#X connect 30 0 57 0;
#X connect 31 0 39 0;
#X connect 32 0 58 0;
#X connect 33 0 35 0;
#X connect 33 0 31 1;
#X connect 34 0 36 0;
#X connect 34 0 31 2;
#X connect 39 0 49 0;
#X connect 40 0 41 0;
#X connect 40 0 48 0;
#X connect 42 0 29 0;
#X connect 43 0 44 0;
#X connect 43 0 42 1;
#X connect 45 0 46 0;
#X connect 45 0 42 0;
#X connect 47 0 49 0;
#X connect 47 1 49 1;
#X connect 48 0 39 0;
#X connect 48 1 39 1;
#X connect 49 0 29 1;
#X connect 50 0 51 0;
#X connect 50 0 29 2;
#X connect 52 0 57 1;
#X connect 53 0 55 0;
#X connect 53 0 52 1;
#X connect 54 0 56 0;
#X connect 54 0 52 2;
#X connect 57 0 26 0;
#X connect 58 0 52 0;
#X connect 58 1 31 0;
#X connect 59 0 69 0;
#X connect 60 0 69 1;
#X connect 61 0 60 0;
#X connect 62 0 61 2;
#X connect 63 0 61 1;
#X connect 64 0 66 0;
#X connect 65 0 47 0;
#X connect 66 0 70 0;
#X connect 69 0 32 0;
#X connect 70 0 65 0;
